<svg width="18" height="18" viewBox="0 0 18 18" fill="none" xmlns="http://www.w3.org/2000/svg">
<g clip-path="url(#clip0_223_31082)">
<path d="M12 15.75V14.25C12 13.4544 11.6839 12.6913 11.1213 12.1287C10.5587 11.5661 9.79565 11.25 9 11.25H4.5C3.70435 11.25 2.94129 11.5661 2.37868 12.1287C1.81607 12.6913 1.5 13.4544 1.5 14.25V15.75" stroke="#0A0A0A" stroke-width="1.5" stroke-linecap="round" stroke-linejoin="round"/>
<path d="M12 2.34375C12.6433 2.51053 13.213 2.8862 13.6198 3.4118C14.0265 3.9374 14.2471 4.58317 14.2471 5.24775C14.2471 5.91233 14.0265 6.5581 13.6198 7.0837C13.213 7.6093 12.6433 7.98497 12 8.15175" stroke="#0A0A0A" stroke-width="1.5" stroke-linecap="round" stroke-linejoin="round"/>
<path d="M16.5 15.7463V14.2463C16.4995 13.5815 16.2783 12.9358 15.871 12.4105C15.4638 11.8851 14.8936 11.5099 14.25 11.3438" stroke="#0A0A0A" stroke-width="1.5" stroke-linecap="round" stroke-linejoin="round"/>
<path d="M6.75 8.25C8.40685 8.25 9.75 6.90685 9.75 5.25C9.75 3.59315 8.40685 2.25 6.75 2.25C5.09315 2.25 3.75 3.59315 3.75 5.25C3.75 6.90685 5.09315 8.25 6.75 8.25Z" stroke="#0A0A0A" stroke-width="1.5" stroke-linecap="round" stroke-linejoin="round"/>
</g>
<defs>
<clipPath id="clip0_223_31082">
<rect width="18" height="18" fill="white"/>
</clipPath>
</defs>
</svg>
