<svg width="32" height="32" viewBox="0 0 32 32" fill="none" xmlns="http://www.w3.org/2000/svg">
<path d="M8 29.3307V5.33073C8 4.62349 8.28095 3.94521 8.78105 3.44511C9.28115 2.94501 9.95942 2.66406 10.6667 2.66406H21.3333C22.0406 2.66406 22.7189 2.94501 23.219 3.44511C23.719 3.94521 24 4.62349 24 5.33073V29.3307H8Z" stroke="#6EA500" stroke-width="2.66667" stroke-linecap="round" stroke-linejoin="round"/>
<path d="M7.99935 16H5.33268C4.62544 16 3.94716 16.281 3.44706 16.781C2.94697 17.2811 2.66602 17.9594 2.66602 18.6667V26.6667C2.66602 27.3739 2.94697 28.0522 3.44706 28.5523C3.94716 29.0524 4.62544 29.3333 5.33268 29.3333H7.99935" stroke="#6EA500" stroke-width="2.66667" stroke-linecap="round" stroke-linejoin="round"/>
<path d="M24 12H26.6667C27.3739 12 28.0522 12.281 28.5523 12.781C29.0524 13.2811 29.3333 13.9594 29.3333 14.6667V26.6667C29.3333 27.3739 29.0524 28.0522 28.5523 28.5523C28.0522 29.0524 27.3739 29.3333 26.6667 29.3333H24" stroke="#6EA500" stroke-width="2.66667" stroke-linecap="round" stroke-linejoin="round"/>
<path d="M13.334 8H18.6673" stroke="#6EA500" stroke-width="2.66667" stroke-linecap="round" stroke-linejoin="round"/>
<path d="M13.334 13.3359H18.6673" stroke="#6EA500" stroke-width="2.66667" stroke-linecap="round" stroke-linejoin="round"/>
<path d="M13.334 18.6641H18.6673" stroke="#6EA500" stroke-width="2.66667" stroke-linecap="round" stroke-linejoin="round"/>
<path d="M13.334 24H18.6673" stroke="#6EA500" stroke-width="2.66667" stroke-linecap="round" stroke-linejoin="round"/>
</svg>
