<svg width="40" height="40" viewBox="0 0 40 40" fill="none" xmlns="http://www.w3.org/2000/svg">
<path d="M24.9993 3.33594H9.99935C9.11529 3.33594 8.26745 3.68713 7.64233 4.31225C7.0172 4.93737 6.66602 5.78522 6.66602 6.66927V33.3359C6.66602 34.22 7.0172 35.0678 7.64233 35.693C8.26745 36.3181 9.11529 36.6693 9.99935 36.6693H29.9993C30.8834 36.6693 31.7312 36.3181 32.3564 35.693C32.9815 35.0678 33.3327 34.22 33.3327 33.3359V11.6693L24.9993 3.33594Z" stroke="#6EA500" stroke-width="3.33333" stroke-linecap="round" stroke-linejoin="round"/>
<path d="M23.334 3.33594V10.0026C23.334 10.8867 23.6852 11.7345 24.3103 12.3596C24.9354 12.9847 25.7833 13.3359 26.6673 13.3359H33.334" stroke="#6EA500" stroke-width="3.33333" stroke-linecap="round" stroke-linejoin="round"/>
<path d="M16.6673 15H13.334" stroke="#6EA500" stroke-width="3.33333" stroke-linecap="round" stroke-linejoin="round"/>
<path d="M26.6673 21.6641H13.334" stroke="#6EA500" stroke-width="3.33333" stroke-linecap="round" stroke-linejoin="round"/>
<path d="M26.6673 28.3359H13.334" stroke="#6EA500" stroke-width="3.33333" stroke-linecap="round" stroke-linejoin="round"/>
</svg>
