<svg width="18" height="18" viewBox="0 0 18 18" fill="none" xmlns="http://www.w3.org/2000/svg">
<g clip-path="url(#clip0_221_28067)">
<path d="M4.7168 16.2895V3.16176C4.7168 2.77491 4.8672 2.40389 5.13492 2.13035C5.40264 1.85681 5.76575 1.70312 6.14436 1.70312H11.8546C12.2332 1.70312 12.5963 1.85681 12.8641 2.13035C13.1318 2.40389 13.2822 2.77491 13.2822 3.16176V16.2895H4.7168Z" stroke="#6EA500" stroke-width="1.44301" stroke-linecap="round" stroke-linejoin="round"/>
</g>
<g clip-path="url(#clip1_221_28067)">
<path d="M4.34609 9.14844H2.9914C2.63212 9.14844 2.28755 9.29092 2.0335 9.54453C1.77945 9.79814 1.63672 10.1421 1.63672 10.5008V14.5578C1.63672 14.9165 1.77945 15.2605 2.0335 15.5141C2.28755 15.7677 2.63212 15.9102 2.9914 15.9102H4.34609" stroke="#6EA500" stroke-width="1.35352" stroke-linecap="round" stroke-linejoin="round"/>
</g>
<g clip-path="url(#clip2_221_28067)">
<path d="M13.6523 6.9375H15.007C15.3663 6.9375 15.7109 7.08587 15.9649 7.34995C16.219 7.61404 16.3617 7.97223 16.3617 8.3457V14.6826C16.3617 15.0561 16.219 15.4143 15.9649 15.6784C15.7109 15.9425 15.3663 16.0908 15.007 16.0908H13.6523" stroke="#6EA500" stroke-width="1.38119" stroke-linecap="round" stroke-linejoin="round"/>
</g>
<g clip-path="url(#clip3_221_28067)">
<path d="M7.65039 4.5H10.3504" stroke="#6EA500" stroke-width="1.23238" stroke-linecap="round" stroke-linejoin="round"/>
</g>
<g clip-path="url(#clip4_221_28067)">
<path d="M7.65039 7.50781H10.3504" stroke="#6EA500" stroke-width="1.23878" stroke-linecap="round" stroke-linejoin="round"/>
</g>
<g clip-path="url(#clip5_221_28067)">
<path d="M7.65039 10.4922H10.3504" stroke="#6EA500" stroke-width="1.23878" stroke-linecap="round" stroke-linejoin="round"/>
</g>
<g clip-path="url(#clip6_221_28067)">
<path d="M7.65039 13.5H10.3504" stroke="#6EA500" stroke-width="1.23238" stroke-linecap="round" stroke-linejoin="round"/>
</g>
<defs>
<clipPath id="clip0_221_28067">
<rect width="10.4688" height="16.5312" fill="white" transform="translate(3.76562 0.734375)"/>
</clipPath>
<clipPath id="clip1_221_28067">
<rect width="4.51562" height="9.01562" fill="white" transform="translate(0.734375 8.25)"/>
</clipPath>
<clipPath id="clip2_221_28067">
<rect width="4.51562" height="11.2656" fill="white" transform="translate(12.75 6)"/>
</clipPath>
<clipPath id="clip3_221_28067">
<rect width="4.5" height="1.5" fill="white" transform="translate(6.75 3.75)"/>
</clipPath>
<clipPath id="clip4_221_28067">
<rect width="4.5" height="1.51562" fill="white" transform="translate(6.75 6.75)"/>
</clipPath>
<clipPath id="clip5_221_28067">
<rect width="4.5" height="1.51562" fill="white" transform="translate(6.75 9.73438)"/>
</clipPath>
<clipPath id="clip6_221_28067">
<rect width="4.5" height="1.5" fill="white" transform="translate(6.75 12.75)"/>
</clipPath>
</defs>
</svg>
