<svg width="20" height="20" viewBox="0 0 20 20" fill="none" xmlns="http://www.w3.org/2000/svg">
<path d="M11.666 1.66406V4.9974C11.666 5.43942 11.8416 5.86335 12.1542 6.17591C12.4667 6.48847 12.8907 6.66406 13.3327 6.66406H16.666" stroke="white" stroke-width="1.66667" stroke-linecap="round" stroke-linejoin="round"/>
<path d="M3.55732 17.4974C3.70324 17.7501 3.91297 17.9601 4.16554 18.1064C4.4181 18.2526 4.70464 18.33 4.99648 18.3307H15.0007C15.4427 18.3307 15.8666 18.1551 16.1792 17.8426C16.4917 17.53 16.6673 17.1061 16.6673 16.6641V5.83073L12.5007 1.66406H5.00065C4.55862 1.66406 4.1347 1.83966 3.82214 2.15222C3.50958 2.46478 3.33398 2.8887 3.33398 3.33073V5.83073" stroke="white" stroke-width="1.66667" stroke-linecap="round" stroke-linejoin="round"/>
<path d="M7.5 15L6.25 13.75" stroke="white" stroke-width="1.66667" stroke-linecap="round" stroke-linejoin="round"/>
<path d="M4.16602 14.1641C5.54673 14.1641 6.66602 13.0448 6.66602 11.6641C6.66602 10.2834 5.54673 9.16406 4.16602 9.16406C2.7853 9.16406 1.66602 10.2834 1.66602 11.6641C1.66602 13.0448 2.7853 14.1641 4.16602 14.1641Z" stroke="white" stroke-width="1.66667" stroke-linecap="round" stroke-linejoin="round"/>
</svg>
