<svg width="20" height="20" viewBox="0 0 20 20" fill="none" xmlns="http://www.w3.org/2000/svg">
<g clip-path="url(#clip0_221_24516)">
<path d="M13.3327 17.5V15.8333C13.3327 14.9493 12.9815 14.1014 12.3564 13.4763C11.7313 12.8512 10.8834 12.5 9.99935 12.5H4.99935C4.11529 12.5 3.26745 12.8512 2.64233 13.4763C2.01721 14.1014 1.66602 14.9493 1.66602 15.8333V17.5" stroke="white" stroke-width="1.66667" stroke-linecap="round" stroke-linejoin="round"/>
<path d="M13.334 2.60938C14.0488 2.79468 14.6818 3.2121 15.1337 3.79609C15.5856 4.38009 15.8308 5.09762 15.8308 5.83604C15.8308 6.57447 15.5856 7.29199 15.1337 7.87599C14.6818 8.45999 14.0488 8.8774 13.334 9.06271" stroke="white" stroke-width="1.66667" stroke-linecap="round" stroke-linejoin="round"/>
<path d="M18.334 17.501V15.8344C18.3334 15.0958 18.0876 14.3784 17.6351 13.7946C17.1826 13.2109 16.5491 12.794 15.834 12.6094" stroke="white" stroke-width="1.66667" stroke-linecap="round" stroke-linejoin="round"/>
<path d="M7.49935 9.16667C9.3403 9.16667 10.8327 7.67428 10.8327 5.83333C10.8327 3.99238 9.3403 2.5 7.49935 2.5C5.6584 2.5 4.16602 3.99238 4.16602 5.83333C4.16602 7.67428 5.6584 9.16667 7.49935 9.16667Z" stroke="white" stroke-width="1.66667" stroke-linecap="round" stroke-linejoin="round"/>
</g>
<defs>
<clipPath id="clip0_221_24516">
<rect width="20" height="20" fill="white"/>
</clipPath>
</defs>
</svg>
