<svg width="18" height="18" viewBox="0 0 18 18" fill="none" xmlns="http://www.w3.org/2000/svg">
<path d="M9 2.25H3.75C3.35218 2.25 2.97064 2.40804 2.68934 2.68934C2.40804 2.97064 2.25 3.35218 2.25 3.75V14.25C2.25 14.6478 2.40804 15.0294 2.68934 15.3107C2.97064 15.592 3.35218 15.75 3.75 15.75H14.25C14.6478 15.75 15.0294 15.592 15.3107 15.3107C15.592 15.0294 15.75 14.6478 15.75 14.25V9" stroke="#155DFC" stroke-width="1.5" stroke-linecap="round" stroke-linejoin="round"/>
<path d="M13.7803 1.96599C14.0787 1.66762 14.4834 1.5 14.9053 1.5C15.3273 1.5 15.732 1.66762 16.0303 1.96599C16.3287 2.26436 16.4963 2.66903 16.4963 3.09099C16.4963 3.51295 16.3287 3.91762 16.0303 4.21599L9.27059 10.9765C9.09251 11.1544 8.8725 11.2847 8.63084 11.3552L6.47609 11.9852C6.41156 12.0041 6.34315 12.0052 6.27803 11.9885C6.2129 11.9718 6.15346 11.9379 6.10593 11.8904C6.05839 11.8429 6.02451 11.7834 6.00783 11.7183C5.99114 11.6532 5.99227 11.5848 6.01109 11.5202L6.64109 9.36549C6.71199 9.12403 6.84249 8.90428 7.02059 8.72649L13.7803 1.96599Z" stroke="#155DFC" stroke-width="1.5" stroke-linecap="round" stroke-linejoin="round"/>
</svg>
