<svg width="20" height="20" viewBox="0 0 20 20" fill="none" xmlns="http://www.w3.org/2000/svg">
<path d="M8.33398 10.83C8.69186 11.3085 9.14845 11.7044 9.67278 11.9908C10.1971 12.2773 10.7769 12.4476 11.3729 12.4903C11.9688 12.533 12.567 12.447 13.1268 12.2382C13.6866 12.0294 14.1949 11.7026 14.6173 11.28L17.1173 8.78005C17.8763 7.99421 18.2963 6.9417 18.2868 5.84921C18.2773 4.75672 17.8391 3.71167 17.0666 2.93914C16.294 2.1666 15.249 1.7284 14.1565 1.71891C13.064 1.70941 12.0115 2.12939 11.2257 2.88838L9.79232 4.31338" stroke="#6EA500" stroke-width="1.66667"/>
<path d="M11.6659 9.16311C11.308 8.68467 10.8514 8.28879 10.3271 8.00233C9.80274 7.71586 9.22293 7.54551 8.62698 7.50283C8.03103 7.46015 7.43287 7.54614 6.87307 7.75496C6.31327 7.96378 5.80493 8.29055 5.38252 8.71311L2.88252 11.2131C2.12353 11.999 1.70355 13.0515 1.71305 14.1439C1.72254 15.2364 2.16075 16.2815 2.93328 17.054C3.70581 17.8266 4.75087 18.2648 5.84335 18.2743C6.93584 18.2837 7.98835 17.8638 8.77419 17.1048L10.1992 15.6798" stroke="#6EA500" stroke-width="1.66667"/>
</svg>
