<svg width="20" height="20" viewBox="0 0 20 20" fill="none" xmlns="http://www.w3.org/2000/svg">
<path d="M15.6993 10.2121L17.1327 8.78707H17.116C17.8832 7.9921 18.3036 6.92518 18.2848 5.82055C18.2661 4.71592 17.8097 3.66388 17.016 2.89541C16.2385 2.14557 15.2004 1.72656 14.1202 1.72656C13.04 1.72656 12.0019 2.14557 11.2243 2.89541L9.79102 4.3204" stroke="#FB2C36" stroke-width="1.66667"/>
<path d="M4.30926 9.78906L2.88426 11.2141C2.11707 12.009 1.6967 13.076 1.71545 14.1806C1.73419 15.2852 2.19053 16.3373 2.98426 17.1057C3.7618 17.8556 4.79989 18.2746 5.88009 18.2746C6.96029 18.2746 7.99838 17.8556 8.77593 17.1057L10.2009 15.6807" stroke="#FB2C36" stroke-width="1.66667"/>
<path d="M6.66602 13.3307L13.3327 6.66406" stroke="#FB2C36" stroke-width="1.66667"/>
</svg>
