<svg width="80" height="78" viewBox="0 0 80 78" fill="none" xmlns="http://www.w3.org/2000/svg">
<mask id="mask0_221_24073" style="mask-type:alpha" maskUnits="userSpaceOnUse" x="0" y="0" width="80" height="78">
<path d="M0 0H75C77.7614 0 80 2.23858 80 5V77.0732H0V0Z" fill="#DD344A"/>
</mask>
<g mask="url(#mask0_221_24073)">
<g opacity="0.3">
<path d="M16.1775 1.16977C14.6401 1.53432 13.0551 2.81817 12.4052 4.21297C12.1199 4.84697 12.1041 5.51267 12.1041 21.9491V39.0354H8.30009H4.49609V46.6434V54.2514H40.0001H75.504V46.6434V39.0354H71.7001H67.896L67.8643 22.1869L67.8168 5.35416L67.2938 4.29222C66.6756 3.04007 65.8356 2.24757 64.4249 1.56602L63.3788 1.07467L40.0793 1.04297C26.8921 1.04297 16.5262 1.09052 16.1775 1.16977ZM21.9152 4.18127C21.5031 5.97231 20.0449 7.71581 18.1588 8.66681C17.1761 9.15816 15.4484 9.69706 14.8461 9.71291C14.5608 9.71291 14.5767 6.35272 14.862 5.54437C15.4167 4.00692 16.5421 3.59482 20.2827 3.54727L22.0579 3.53142L21.9152 4.18127ZM55.438 4.79942C55.5965 5.54437 56.0086 6.66972 56.4365 7.52561C57.8789 10.4103 60.8745 12.7403 63.997 13.4377L65.2015 13.7071V32.632V51.5569H60.6843C58.1959 51.5569 56.1671 51.5252 56.1671 51.4935C56.1671 51.4618 56.4999 50.9546 56.8962 50.3523C58.4495 48.0224 59.5907 45.2328 60.0503 42.5541C60.3673 40.7948 60.3515 37.2444 60.0503 35.4533C59.5748 32.8064 58.4336 29.9851 56.8328 27.5442C55.8976 26.1177 52.9337 23.1537 51.4438 22.1869C47.8617 19.8094 44.3271 18.7474 40.0001 18.7474C35.7047 18.7474 32.1385 19.8094 28.5088 22.2027C27.0823 23.1379 24.1025 26.1177 23.1515 27.56C21.5665 29.9851 20.4253 32.7905 19.9498 35.4533C19.6487 37.2444 19.6328 40.7948 19.9498 42.57C20.4095 45.2011 21.5665 48.0699 23.104 50.3523C23.5002 50.9546 23.8331 51.4618 23.8331 51.4935C23.8331 51.5252 21.7726 51.5569 19.2366 51.5569H14.6401V31.998V12.4391L15.5594 12.3282C16.0507 12.2648 17.0017 12.0429 17.6516 11.8368C21.2654 10.6798 23.8172 8.04866 24.5622 4.67262L24.8158 3.53142H39.9842H55.1685L55.438 4.79942ZM63.1411 3.95937C63.997 4.33977 64.8053 5.21151 65.0431 6.01986C65.154 6.36857 65.2015 7.52561 65.1698 8.79361L65.1223 10.9651L63.9653 10.5688C60.9062 9.53856 58.7823 7.17692 58.0057 3.94352L57.8947 3.48387L60.1613 3.56312C61.9682 3.62652 62.5705 3.70577 63.1411 3.95937ZM41.9021 21.5053C42.5519 21.5529 43.7565 21.7748 44.5807 21.9967C50.5562 23.6134 55.3746 28.4318 57.0547 34.4706C57.6411 36.5945 57.7679 40.2083 57.3083 42.3639C56.6584 45.4388 55.3746 48.1016 53.4092 50.4474L52.474 51.5569H40.0001H27.5261L26.6227 50.4791C24.8475 48.4028 23.6429 46.0411 22.8504 43.204C22.5492 42.142 22.5017 41.5397 22.5017 39.0354C22.4858 36.3092 22.5175 35.9922 22.9138 34.5499C24.6414 28.3842 29.4281 23.5975 35.5145 21.9808C36.9569 21.5846 39.4136 21.2834 40.3171 21.3785C40.539 21.4102 41.2522 21.4578 41.9021 21.5053ZM12.1041 46.6434V51.7154H9.64734H7.19059V46.6434V41.5714H9.64734H12.1041V46.6434ZM72.8095 46.6434V51.7154H70.3528H67.896V46.6434V41.5714H70.3528H72.8095V46.6434Z" fill="white"/>
<path d="M32.7882 32.3478C31.6629 32.7282 30.6168 33.3781 30.0303 34.0438C29.428 34.7412 28.6197 36.2945 28.4612 37.1028L28.3344 37.6893L27.0981 37.7685C25.7033 37.8636 25.418 38.0697 25.418 39.0365C25.418 40.0034 25.7033 40.2094 27.0981 40.3045L28.3344 40.3838L28.4612 40.9702C28.6514 41.9371 29.5073 43.4428 30.2681 44.2195C30.6643 44.5999 31.4568 45.1546 32.0433 45.4241C32.9467 45.852 33.3271 45.9313 34.6427 45.9788C35.7522 46.0264 36.3703 45.9788 36.9092 45.8045C38.4308 45.2814 39.5879 43.9183 40.5072 41.5725L41.0144 40.3045H44.9452C47.5604 40.3045 48.876 40.3521 48.876 40.463C48.876 40.5581 48.7333 40.9068 48.559 41.2397C47.9725 42.4126 46.7204 43.1417 44.8659 43.3953C44.438 43.4587 43.9625 43.633 43.7881 43.8074C43.3602 44.2353 43.376 45.2656 43.8198 45.7094C44.121 46.0105 44.2953 46.0422 45.4682 45.9788C47.9091 45.852 50.1123 44.4255 51.1108 42.3175C51.3644 41.7786 51.5704 41.208 51.5704 41.0653C51.5704 40.3996 51.729 40.3045 52.8543 40.3045C54.1857 40.3045 54.5819 40.0192 54.5819 39.0365C54.5819 38.0538 54.1857 37.7685 52.8543 37.7685C51.729 37.7685 51.5704 37.6734 51.5704 37.0077C51.5704 36.453 50.6036 34.7412 49.9062 34.0438C49.4783 33.6 48.6858 33.0769 47.9567 32.7282C46.9106 32.221 46.5619 32.1418 45.3097 32.0942C44.5331 32.0625 43.5821 32.1101 43.2175 32.2052C41.7435 32.6014 40.3804 34.1706 39.4928 36.453L39.0014 37.7685H35.0548C32.4395 37.7685 31.124 37.721 31.124 37.61C31.124 37.1979 31.8055 36.1677 32.392 35.6605C33.0418 35.1057 33.7392 34.8521 35.134 34.6778C36.1167 34.551 36.513 34.1547 36.513 33.3305C36.513 32.332 36.1326 32.0625 34.7378 32.0625C34.0562 32.0784 33.2479 32.1893 32.7882 32.3478ZM46.9106 35.2008C47.6714 35.5812 48.6382 36.6432 48.7967 37.2455C48.8443 37.4674 48.8601 37.6734 48.8284 37.7051C48.7967 37.7527 47.2276 37.7527 45.3256 37.7368L41.902 37.6893L42.3458 36.7383C42.5994 36.2152 43.0749 35.5495 43.4077 35.2484C43.9942 34.7253 44.0417 34.7253 45.1354 34.7887C45.8486 34.8363 46.4985 34.9948 46.9106 35.2008ZM37.9395 40.7008C37.5908 41.6201 37.1311 42.3492 36.5922 42.8088C36.1009 43.2526 35.9107 43.316 35.1023 43.316C34.0245 43.316 33.3113 43.11 32.5822 42.5711C32.0274 42.159 31.3776 41.2555 31.2032 40.6532L31.1081 40.3045H34.5951H38.098L37.9395 40.7008Z" fill="white"/>
<path d="M32.7252 57.2012C32.4082 57.5974 32.3924 57.8193 32.3924 61.0052V64.3971H30.1892C27.9861 64.3971 27.9702 64.3971 27.6532 64.8092C26.8766 65.7918 26.8449 65.7285 32.7411 71.6405C38.0825 76.9819 38.1776 77.077 38.8116 77.077C39.4298 77.077 39.5407 76.9819 44.8822 71.6405C49.9858 66.5368 50.3028 66.1881 50.3028 65.6492C50.3028 65.2688 50.1919 64.9835 49.9383 64.7458C49.5896 64.4288 49.4153 64.3971 47.4023 64.3971H45.2309V60.9418C45.2309 57.534 45.2309 57.4706 44.8663 57.1378C44.5018 56.7891 44.4384 56.7891 38.7799 56.7891H33.0422L32.7252 57.2012ZM42.5364 62.717C42.5364 65.9028 42.5522 66.1247 42.8692 66.5209C43.1704 66.9013 43.2813 66.933 44.4859 66.933H45.7856L42.2986 70.42L38.8116 73.907L35.3563 70.4676L31.9169 67.0123L33.1373 66.9647C34.1359 66.933 34.437 66.8538 34.7223 66.5843C35.0869 66.2515 35.0869 66.1722 35.0869 62.7804V59.3251H38.8116H42.5364V62.717Z" fill="white"/>
</g>
</g>
</svg>
