<svg width="20" height="20" viewBox="0 0 20 20" fill="none" xmlns="http://www.w3.org/2000/svg">
<path d="M12.5007 1.66406H5.00065C4.55862 1.66406 4.1347 1.83966 3.82214 2.15222C3.50958 2.46478 3.33398 2.8887 3.33398 3.33073V16.6641C3.33398 17.1061 3.50958 17.53 3.82214 17.8426C4.1347 18.1551 4.55862 18.3307 5.00065 18.3307H15.0007C15.4427 18.3307 15.8666 18.1551 16.1792 17.8426C16.4917 17.53 16.6673 17.1061 16.6673 16.6641V5.83073L12.5007 1.66406Z" stroke="white" stroke-width="1.66667" stroke-linecap="round" stroke-linejoin="round"/>
<path d="M11.666 1.66406V4.9974C11.666 5.43942 11.8416 5.86335 12.1542 6.17591C12.4667 6.48847 12.8907 6.66406 13.3327 6.66406H16.666" stroke="white" stroke-width="1.66667" stroke-linecap="round" stroke-linejoin="round"/>
<path d="M8.33268 7.5H6.66602" stroke="white" stroke-width="1.66667" stroke-linecap="round" stroke-linejoin="round"/>
<path d="M13.3327 10.8359H6.66602" stroke="white" stroke-width="1.66667" stroke-linecap="round" stroke-linejoin="round"/>
<path d="M13.3327 14.1641H6.66602" stroke="white" stroke-width="1.66667" stroke-linecap="round" stroke-linejoin="round"/>
</svg>
